<svg width="900" height="760" viewBox="0 0 900 760" fill="none" xmlns="http://www.w3.org/2000/svg">
<rect width="900" height="760" rx="34" fill="#F8FAFC"/>
<rect x="38" y="38" width="824" height="92" rx="26" fill="#111827"/>
<circle cx="91" cy="84" r="18" fill="#FF5A1F"/><rect x="130" y="70" width="210" height="28" rx="14" fill="white" opacity=".92"/><rect x="650" y="66" width="160" height="36" rx="18" fill="#FF5A1F"/>
<rect x="38" y="164" width="246" height="154" rx="28" fill="white" stroke="#E5E7EB"/><text x="68" y="212" font-family="Inter,Arial" font-size="22" font-weight="800" fill="#111827">Заявки</text><text x="68" y="270" font-family="Inter,Arial" font-size="58" font-weight="900" fill="#111827">248</text><path d="M68 294h170" stroke="#FF5A1F" stroke-width="13" stroke-linecap="round"/>
<rect x="327" y="164" width="246" height="154" rx="28" fill="white" stroke="#E5E7EB"/><text x="357" y="212" font-family="Inter,Arial" font-size="22" font-weight="800" fill="#111827">CTR</text><text x="357" y="270" font-family="Inter,Arial" font-size="58" font-weight="900" fill="#111827">4.8%</text><path d="M357 294h145" stroke="#111827" stroke-width="13" stroke-linecap="round"/>
<rect x="616" y="164" width="246" height="154" rx="28" fill="white" stroke="#E5E7EB"/><text x="646" y="212" font-family="Inter,Arial" font-size="22" font-weight="800" fill="#111827">Лиды</text><text x="646" y="270" font-family="Inter,Arial" font-size="58" font-weight="900" fill="#111827">+63%</text><path d="M646 294h122" stroke="#FF5A1F" stroke-width="13" stroke-linecap="round"/>
<rect x="38" y="356" width="522" height="338" rx="30" fill="white" stroke="#E5E7EB"/><text x="76" y="410" font-family="Inter,Arial" font-size="26" font-weight="900" fill="#111827">Рост заявок</text><path d="M78 628C140 585 180 605 238 542C289 487 330 511 379 453C416 409 460 433 520 384" stroke="#FF5A1F" stroke-width="16" stroke-linecap="round" stroke-linejoin="round"/><path d="M78 650H514" stroke="#CBD5E1" stroke-width="3"/><path d="M78 468H514" stroke="#E2E8F0" stroke-width="3"/><path d="M78 558H514" stroke="#E2E8F0" stroke-width="3"/>
<rect x="600" y="356" width="262" height="338" rx="30" fill="#111827"/><text x="636" y="411" font-family="Inter,Arial" font-size="25" font-weight="900" fill="white">Каналы</text><circle cx="731" cy="535" r="94" stroke="#FF5A1F" stroke-width="32"/><path d="M731 441a94 94 0 0 1 88 127" stroke="white" stroke-width="32" stroke-linecap="round"/><text x="686" y="547" font-family="Inter,Arial" font-size="40" font-weight="900" fill="white">78%</text><rect x="636" y="638" width="154" height="24" rx="12" fill="white" opacity=".9"/>
</svg>
