<svg xmlns="http://www.w3.org/2000/svg" viewBox="0 0 150 150" role="img" aria-label="Google продвижение"><rect width="150" height="150" rx="34" fill="#fff4ee"/><circle cx="118" cy="32" r="18" fill="#ff5a1f" opacity=".15"/><circle cx="35" cy="120" r="22" fill="#111827" opacity=".08"/><path d="M78 44 C96 45 110 58 112 76 H78 V92 H100 C95 101 87 106 76 106 C59 106 45 92 45 75 C45 58 59 44 76 44 Z" fill="none" stroke="#ff5a1f" stroke-width="7" stroke-linecap="round" stroke-linejoin="round"/><path d="M112 76 C112 95 98 116 76 116 C53 116 34 98 34 75 C34 52 53 34 76 34 C89 34 100 39 108 48" fill="none" stroke="#111827" stroke-width="7" stroke-linecap="round" stroke-linejoin="round"/><path d="M76 76 H118" fill="#ff5a1f" stroke="#ff5a1f" stroke-width="7" stroke-linecap="round" stroke-linejoin="round"/></svg>