<svg xmlns="http://www.w3.org/2000/svg" viewBox="0 0 150 150" role="img" aria-label="Instagram таргет"><rect width="150" height="150" rx="34" fill="#fff4ee"/><circle cx="118" cy="32" r="18" fill="#ff5a1f" opacity=".15"/><circle cx="35" cy="120" r="22" fill="#111827" opacity=".08"/><path d="M45 75 C45 58 58 45 75 45 C92 45 105 58 105 75 C105 92 92 105 75 105 C58 105 45 92 45 75 Z" fill="none" stroke="#ff5a1f" stroke-width="7" stroke-linecap="round" stroke-linejoin="round"/><path d="M75 58 C84 58 92 66 92 75 C92 84 84 92 75 92 C66 92 58 84 58 75 C58 66 66 58 75 58 Z" fill="none" stroke="#111827" stroke-width="7" stroke-linecap="round" stroke-linejoin="round"/><path d="M75 68 C79 68 82 71 82 75 C82 79 79 82 75 82 C71 82 68 79 68 75 C68 71 71 68 75 68 Z" fill="#ff5a1f" stroke="#ff5a1f" stroke-width="7" stroke-linecap="round" stroke-linejoin="round"/></svg>